<mxfile host="app.diagrams.net" modified="2023-05-28T19:10:41.798Z" agent="Mozilla/5.0 (Windows NT 10.0; Win64; x64) AppleWebKit/537.36 (KHTML, like Gecko) Chrome/113.0.0.0 Safari/537.36" etag="6nRusKYcGamX-x6xxho2" version="21.3.4" type="device">
  <diagram name="Page-1" id="6_Ac-wm6RWoP46rep5hT">
    <mxGraphModel dx="2627" dy="2212" grid="1" gridSize="10" guides="1" tooltips="1" connect="1" arrows="1" fold="1" page="1" pageScale="1" pageWidth="850" pageHeight="1100" math="0" shadow="0">
      <root>
        <mxCell id="0" />
        <mxCell id="1" parent="0" />
        <mxCell id="eyb6PB5nKrarsUAp8lHx-6" value="&lt;font style=&quot;font-size: 18px;&quot;&gt;empty case&amp;nbsp;&lt;/font&gt;" style="text;strokeColor=none;fillColor=none;html=1;fontSize=24;fontStyle=1;verticalAlign=middle;align=center;" parent="1" vertex="1">
          <mxGeometry x="770" y="320" width="95" height="30" as="geometry" />
        </mxCell>
        <mxCell id="eyb6PB5nKrarsUAp8lHx-22" value="&lt;font style=&quot;font-size: 18px;&quot;&gt;insert case 1&amp;nbsp;&lt;/font&gt;" style="text;strokeColor=none;fillColor=none;html=1;fontSize=24;fontStyle=1;verticalAlign=middle;align=center;" parent="1" vertex="1">
          <mxGeometry x="505" y="80" width="95" height="30" as="geometry" />
        </mxCell>
        <mxCell id="eyb6PB5nKrarsUAp8lHx-23" value="&lt;font style=&quot;font-size: 18px;&quot;&gt;get min case&amp;nbsp;&lt;/font&gt;" style="text;strokeColor=none;fillColor=none;html=1;fontSize=24;fontStyle=1;verticalAlign=middle;align=center;" parent="1" vertex="1">
          <mxGeometry x="162.5" y="240" width="95" height="30" as="geometry" />
        </mxCell>
        <mxCell id="eyb6PB5nKrarsUAp8lHx-24" value="&lt;font style=&quot;font-size: 18px;&quot;&gt;remove case&amp;nbsp;&lt;/font&gt;" style="text;strokeColor=none;fillColor=none;html=1;fontSize=24;fontStyle=1;verticalAlign=middle;align=center;" parent="1" vertex="1">
          <mxGeometry x="-310" y="230" width="95" height="30" as="geometry" />
        </mxCell>
        <mxCell id="eyb6PB5nKrarsUAp8lHx-27" value="&lt;font style=&quot;font-size: 15px;&quot;&gt;there&#39;s no node insert yet&lt;br&gt;&lt;/font&gt;" style="text;html=1;strokeColor=none;fillColor=none;align=center;verticalAlign=middle;whiteSpace=wrap;rounded=0;" parent="1" vertex="1">
          <mxGeometry x="750" y="480" width="150" height="20" as="geometry" />
        </mxCell>
        <mxCell id="eyb6PB5nKrarsUAp8lHx-28" value="&lt;font style=&quot;font-size: 15px;&quot;&gt;front =rear=0&lt;/font&gt;" style="text;html=1;strokeColor=none;fillColor=none;align=center;verticalAlign=middle;whiteSpace=wrap;rounded=0;" parent="1" vertex="1">
          <mxGeometry x="497.5" y="330" width="115" height="30" as="geometry" />
        </mxCell>
        <mxCell id="eyb6PB5nKrarsUAp8lHx-35" value="&lt;font style=&quot;font-size: 18px;&quot;&gt;insert case 2&amp;nbsp;&lt;/font&gt;" style="text;strokeColor=none;fillColor=none;html=1;fontSize=24;fontStyle=1;verticalAlign=middle;align=center;" parent="1" vertex="1">
          <mxGeometry x="517.5" y="535" width="95" height="30" as="geometry" />
        </mxCell>
        <mxCell id="eyb6PB5nKrarsUAp8lHx-47" value="inserting 9 in to the queue" style="text;html=1;strokeColor=none;fillColor=none;align=center;verticalAlign=middle;whiteSpace=wrap;rounded=0;" parent="1" vertex="1">
          <mxGeometry x="482.5" y="750" width="160" height="30" as="geometry" />
        </mxCell>
        <mxCell id="eyb6PB5nKrarsUAp8lHx-56" value="front = 0&amp;nbsp; &amp;nbsp; &amp;nbsp;//&amp;nbsp; &amp;nbsp; &amp;nbsp; rear=1" style="text;html=1;strokeColor=none;fillColor=none;align=center;verticalAlign=middle;whiteSpace=wrap;rounded=0;" parent="1" vertex="1">
          <mxGeometry x="490" y="780" width="160" height="30" as="geometry" />
        </mxCell>
        <mxCell id="eyb6PB5nKrarsUAp8lHx-60" value="&lt;font style=&quot;font-size: 50px;&quot;&gt;illustration of PQ&lt;/font&gt;" style="text;html=1;strokeColor=none;fillColor=none;align=center;verticalAlign=middle;whiteSpace=wrap;rounded=0;" parent="1" vertex="1">
          <mxGeometry x="-117.5" y="-30" width="650" height="100" as="geometry" />
        </mxCell>
        <mxCell id="eyb6PB5nKrarsUAp8lHx-74" value="" style="rounded=0;whiteSpace=wrap;html=1;align=center;" parent="1" vertex="1">
          <mxGeometry x="512.5" y="165" width="65" height="40" as="geometry" />
        </mxCell>
        <mxCell id="eyb6PB5nKrarsUAp8lHx-76" value="" style="endArrow=none;html=1;rounded=0;entryX=0.5;entryY=0;entryDx=0;entryDy=0;exitX=0.5;exitY=1;exitDx=0;exitDy=0;" parent="1" source="eyb6PB5nKrarsUAp8lHx-74" target="eyb6PB5nKrarsUAp8lHx-74" edge="1">
          <mxGeometry width="50" height="50" relative="1" as="geometry">
            <mxPoint x="487.5" y="365" as="sourcePoint" />
            <mxPoint x="537.5" y="315" as="targetPoint" />
          </mxGeometry>
        </mxCell>
        <mxCell id="eyb6PB5nKrarsUAp8lHx-86" style="edgeStyle=orthogonalEdgeStyle;rounded=0;orthogonalLoop=1;jettySize=auto;html=1;entryX=0.5;entryY=0;entryDx=0;entryDy=0;" parent="1" target="eyb6PB5nKrarsUAp8lHx-85" edge="1">
          <mxGeometry relative="1" as="geometry">
            <mxPoint x="527.5" y="200" as="sourcePoint" />
          </mxGeometry>
        </mxCell>
        <mxCell id="eyb6PB5nKrarsUAp8lHx-93" style="edgeStyle=orthogonalEdgeStyle;rounded=0;orthogonalLoop=1;jettySize=auto;html=1;" parent="1" source="eyb6PB5nKrarsUAp8lHx-78" target="eyb6PB5nKrarsUAp8lHx-90" edge="1">
          <mxGeometry relative="1" as="geometry" />
        </mxCell>
        <mxCell id="eyb6PB5nKrarsUAp8lHx-94" style="edgeStyle=orthogonalEdgeStyle;rounded=0;orthogonalLoop=1;jettySize=auto;html=1;" parent="1" source="eyb6PB5nKrarsUAp8lHx-78" target="eyb6PB5nKrarsUAp8lHx-91" edge="1">
          <mxGeometry relative="1" as="geometry" />
        </mxCell>
        <mxCell id="eyb6PB5nKrarsUAp8lHx-78" value="5" style="text;html=1;strokeColor=none;fillColor=none;align=center;verticalAlign=middle;whiteSpace=wrap;rounded=0;" parent="1" vertex="1">
          <mxGeometry x="497.5" y="170" width="60" height="30" as="geometry" />
        </mxCell>
        <mxCell id="eyb6PB5nKrarsUAp8lHx-83" style="edgeStyle=orthogonalEdgeStyle;rounded=0;orthogonalLoop=1;jettySize=auto;html=1;entryX=0.5;entryY=0;entryDx=0;entryDy=0;" parent="1" source="eyb6PB5nKrarsUAp8lHx-79" target="eyb6PB5nKrarsUAp8lHx-82" edge="1">
          <mxGeometry relative="1" as="geometry" />
        </mxCell>
        <mxCell id="eyb6PB5nKrarsUAp8lHx-79" value="2" style="text;html=1;strokeColor=none;fillColor=none;align=center;verticalAlign=middle;whiteSpace=wrap;rounded=0;" parent="1" vertex="1">
          <mxGeometry x="532.5" y="170" width="60" height="30" as="geometry" />
        </mxCell>
        <mxCell id="eyb6PB5nKrarsUAp8lHx-82" value="priority" style="text;html=1;strokeColor=none;fillColor=none;align=center;verticalAlign=middle;whiteSpace=wrap;rounded=0;" parent="1" vertex="1">
          <mxGeometry x="540" y="285" width="45" height="10" as="geometry" />
        </mxCell>
        <mxCell id="eyb6PB5nKrarsUAp8lHx-85" value="data" style="text;html=1;strokeColor=none;fillColor=none;align=center;verticalAlign=middle;whiteSpace=wrap;rounded=0;" parent="1" vertex="1">
          <mxGeometry x="505" y="285" width="45" height="10" as="geometry" />
        </mxCell>
        <mxCell id="eyb6PB5nKrarsUAp8lHx-90" value="front" style="text;html=1;strokeColor=none;fillColor=none;align=center;verticalAlign=middle;whiteSpace=wrap;rounded=0;" parent="1" vertex="1">
          <mxGeometry x="400" y="130" width="60" height="30" as="geometry" />
        </mxCell>
        <mxCell id="eyb6PB5nKrarsUAp8lHx-91" value="rear" style="text;html=1;strokeColor=none;fillColor=none;align=center;verticalAlign=middle;whiteSpace=wrap;rounded=0;" parent="1" vertex="1">
          <mxGeometry x="395" y="190" width="60" height="30" as="geometry" />
        </mxCell>
        <mxCell id="eyb6PB5nKrarsUAp8lHx-95" value="" style="rounded=0;whiteSpace=wrap;html=1;" parent="1" vertex="1">
          <mxGeometry x="577.5" y="165" width="30" height="40" as="geometry" />
        </mxCell>
        <mxCell id="eyb6PB5nKrarsUAp8lHx-98" style="edgeStyle=orthogonalEdgeStyle;rounded=0;orthogonalLoop=1;jettySize=auto;html=1;entryX=0.5;entryY=0;entryDx=0;entryDy=0;" parent="1" source="eyb6PB5nKrarsUAp8lHx-96" target="eyb6PB5nKrarsUAp8lHx-97" edge="1">
          <mxGeometry relative="1" as="geometry" />
        </mxCell>
        <mxCell id="eyb6PB5nKrarsUAp8lHx-96" value="null" style="text;html=1;strokeColor=none;fillColor=none;align=center;verticalAlign=middle;whiteSpace=wrap;rounded=0;" parent="1" vertex="1">
          <mxGeometry x="562.5" y="170" width="60" height="30" as="geometry" />
        </mxCell>
        <mxCell id="eyb6PB5nKrarsUAp8lHx-97" value="reference" style="text;html=1;strokeColor=none;fillColor=none;align=center;verticalAlign=middle;whiteSpace=wrap;rounded=0;" parent="1" vertex="1">
          <mxGeometry x="577.5" y="275" width="60" height="30" as="geometry" />
        </mxCell>
        <mxCell id="eyb6PB5nKrarsUAp8lHx-99" value="" style="rounded=0;whiteSpace=wrap;html=1;align=center;" parent="1" vertex="1">
          <mxGeometry x="380" y="595" width="65" height="40" as="geometry" />
        </mxCell>
        <mxCell id="eyb6PB5nKrarsUAp8lHx-100" value="" style="endArrow=none;html=1;rounded=0;entryX=0.5;entryY=0;entryDx=0;entryDy=0;exitX=0.5;exitY=1;exitDx=0;exitDy=0;" parent="1" source="eyb6PB5nKrarsUAp8lHx-99" target="eyb6PB5nKrarsUAp8lHx-99" edge="1">
          <mxGeometry width="50" height="50" relative="1" as="geometry">
            <mxPoint x="370" y="795" as="sourcePoint" />
            <mxPoint x="420" y="745" as="targetPoint" />
          </mxGeometry>
        </mxCell>
        <mxCell id="eyb6PB5nKrarsUAp8lHx-102" style="edgeStyle=orthogonalEdgeStyle;rounded=0;orthogonalLoop=1;jettySize=auto;html=1;" parent="1" source="eyb6PB5nKrarsUAp8lHx-104" target="eyb6PB5nKrarsUAp8lHx-109" edge="1">
          <mxGeometry relative="1" as="geometry" />
        </mxCell>
        <mxCell id="eyb6PB5nKrarsUAp8lHx-104" value="5" style="text;html=1;strokeColor=none;fillColor=none;align=center;verticalAlign=middle;whiteSpace=wrap;rounded=0;" parent="1" vertex="1">
          <mxGeometry x="370" y="600" width="60" height="30" as="geometry" />
        </mxCell>
        <mxCell id="eyb6PB5nKrarsUAp8lHx-106" value="2" style="text;html=1;strokeColor=none;fillColor=none;align=center;verticalAlign=middle;whiteSpace=wrap;rounded=0;" parent="1" vertex="1">
          <mxGeometry x="400" y="600" width="60" height="30" as="geometry" />
        </mxCell>
        <mxCell id="eyb6PB5nKrarsUAp8lHx-109" value="front" style="text;html=1;strokeColor=none;fillColor=none;align=center;verticalAlign=middle;whiteSpace=wrap;rounded=0;" parent="1" vertex="1">
          <mxGeometry x="370" y="670" width="60" height="30" as="geometry" />
        </mxCell>
        <mxCell id="eyb6PB5nKrarsUAp8lHx-129" value="" style="edgeStyle=orthogonalEdgeStyle;rounded=0;orthogonalLoop=1;jettySize=auto;html=1;" parent="1" source="eyb6PB5nKrarsUAp8lHx-111" target="eyb6PB5nKrarsUAp8lHx-122" edge="1">
          <mxGeometry relative="1" as="geometry" />
        </mxCell>
        <mxCell id="eyb6PB5nKrarsUAp8lHx-111" value="" style="rounded=0;whiteSpace=wrap;html=1;" parent="1" vertex="1">
          <mxGeometry x="440" y="595" width="110" height="40" as="geometry" />
        </mxCell>
        <mxCell id="eyb6PB5nKrarsUAp8lHx-113" value="0x7f8e1a2310a0" style="text;html=1;strokeColor=none;fillColor=none;align=center;verticalAlign=middle;whiteSpace=wrap;rounded=0;" parent="1" vertex="1">
          <mxGeometry x="490" y="600" width="5" height="30" as="geometry" />
        </mxCell>
        <mxCell id="eyb6PB5nKrarsUAp8lHx-120" value="" style="rounded=0;whiteSpace=wrap;html=1;align=center;" parent="1" vertex="1">
          <mxGeometry x="617.5" y="595" width="65" height="40" as="geometry" />
        </mxCell>
        <mxCell id="eyb6PB5nKrarsUAp8lHx-121" value="" style="endArrow=none;html=1;rounded=0;entryX=0.5;entryY=0;entryDx=0;entryDy=0;exitX=0.5;exitY=1;exitDx=0;exitDy=0;" parent="1" source="eyb6PB5nKrarsUAp8lHx-120" target="eyb6PB5nKrarsUAp8lHx-120" edge="1">
          <mxGeometry width="50" height="50" relative="1" as="geometry">
            <mxPoint x="592.5" y="795" as="sourcePoint" />
            <mxPoint x="642.5" y="745" as="targetPoint" />
          </mxGeometry>
        </mxCell>
        <mxCell id="eyb6PB5nKrarsUAp8lHx-131" value="" style="edgeStyle=orthogonalEdgeStyle;rounded=0;orthogonalLoop=1;jettySize=auto;html=1;" parent="1" source="eyb6PB5nKrarsUAp8lHx-122" target="eyb6PB5nKrarsUAp8lHx-130" edge="1">
          <mxGeometry relative="1" as="geometry" />
        </mxCell>
        <mxCell id="eyb6PB5nKrarsUAp8lHx-122" value="9" style="text;html=1;strokeColor=none;fillColor=none;align=center;verticalAlign=middle;whiteSpace=wrap;rounded=0;" parent="1" vertex="1">
          <mxGeometry x="600" y="600" width="60" height="30" as="geometry" />
        </mxCell>
        <mxCell id="eyb6PB5nKrarsUAp8lHx-123" value="3" style="text;html=1;strokeColor=none;fillColor=none;align=center;verticalAlign=middle;whiteSpace=wrap;rounded=0;" parent="1" vertex="1">
          <mxGeometry x="637.5" y="600" width="60" height="30" as="geometry" />
        </mxCell>
        <mxCell id="eyb6PB5nKrarsUAp8lHx-124" value="" style="rounded=0;whiteSpace=wrap;html=1;" parent="1" vertex="1">
          <mxGeometry x="682.5" y="595" width="30" height="40" as="geometry" />
        </mxCell>
        <mxCell id="eyb6PB5nKrarsUAp8lHx-125" value="null" style="text;html=1;strokeColor=none;fillColor=none;align=center;verticalAlign=middle;whiteSpace=wrap;rounded=0;" parent="1" vertex="1">
          <mxGeometry x="667.5" y="600" width="60" height="30" as="geometry" />
        </mxCell>
        <mxCell id="eyb6PB5nKrarsUAp8lHx-130" value="rear" style="text;html=1;strokeColor=none;fillColor=none;align=center;verticalAlign=middle;whiteSpace=wrap;rounded=0;" parent="1" vertex="1">
          <mxGeometry x="600" y="670" width="60" height="30" as="geometry" />
        </mxCell>
        <mxCell id="eyb6PB5nKrarsUAp8lHx-132" value="" style="rounded=0;whiteSpace=wrap;html=1;align=center;" parent="1" vertex="1">
          <mxGeometry x="52.5" y="320" width="65" height="40" as="geometry" />
        </mxCell>
        <mxCell id="eyb6PB5nKrarsUAp8lHx-133" value="" style="endArrow=none;html=1;rounded=0;entryX=0.5;entryY=0;entryDx=0;entryDy=0;exitX=0.5;exitY=1;exitDx=0;exitDy=0;" parent="1" source="eyb6PB5nKrarsUAp8lHx-132" target="eyb6PB5nKrarsUAp8lHx-132" edge="1">
          <mxGeometry width="50" height="50" relative="1" as="geometry">
            <mxPoint x="42.5" y="520" as="sourcePoint" />
            <mxPoint x="92.5" y="470" as="targetPoint" />
          </mxGeometry>
        </mxCell>
        <mxCell id="eyb6PB5nKrarsUAp8lHx-134" style="edgeStyle=orthogonalEdgeStyle;rounded=0;orthogonalLoop=1;jettySize=auto;html=1;" parent="1" source="eyb6PB5nKrarsUAp8lHx-135" target="eyb6PB5nKrarsUAp8lHx-137" edge="1">
          <mxGeometry relative="1" as="geometry" />
        </mxCell>
        <mxCell id="eyb6PB5nKrarsUAp8lHx-135" value="5" style="text;html=1;strokeColor=none;fillColor=none;align=center;verticalAlign=middle;whiteSpace=wrap;rounded=0;" parent="1" vertex="1">
          <mxGeometry x="42.5" y="325" width="60" height="30" as="geometry" />
        </mxCell>
        <mxCell id="eyb6PB5nKrarsUAp8lHx-136" value="2" style="text;html=1;strokeColor=none;fillColor=none;align=center;verticalAlign=middle;whiteSpace=wrap;rounded=0;" parent="1" vertex="1">
          <mxGeometry x="72.5" y="325" width="60" height="30" as="geometry" />
        </mxCell>
        <mxCell id="eyb6PB5nKrarsUAp8lHx-137" value="front" style="text;html=1;strokeColor=none;fillColor=none;align=center;verticalAlign=middle;whiteSpace=wrap;rounded=0;" parent="1" vertex="1">
          <mxGeometry x="42.5" y="395" width="60" height="30" as="geometry" />
        </mxCell>
        <mxCell id="eyb6PB5nKrarsUAp8lHx-138" value="" style="edgeStyle=orthogonalEdgeStyle;rounded=0;orthogonalLoop=1;jettySize=auto;html=1;" parent="1" source="eyb6PB5nKrarsUAp8lHx-139" target="eyb6PB5nKrarsUAp8lHx-144" edge="1">
          <mxGeometry relative="1" as="geometry" />
        </mxCell>
        <mxCell id="eyb6PB5nKrarsUAp8lHx-139" value="" style="rounded=0;whiteSpace=wrap;html=1;" parent="1" vertex="1">
          <mxGeometry x="112.5" y="320" width="110" height="40" as="geometry" />
        </mxCell>
        <mxCell id="eyb6PB5nKrarsUAp8lHx-140" value="0x7f8e1a2310a0" style="text;html=1;strokeColor=none;fillColor=none;align=center;verticalAlign=middle;whiteSpace=wrap;rounded=0;" parent="1" vertex="1">
          <mxGeometry x="162.5" y="325" width="5" height="30" as="geometry" />
        </mxCell>
        <mxCell id="eyb6PB5nKrarsUAp8lHx-141" value="" style="rounded=0;whiteSpace=wrap;html=1;align=center;" parent="1" vertex="1">
          <mxGeometry x="290" y="320" width="65" height="40" as="geometry" />
        </mxCell>
        <mxCell id="eyb6PB5nKrarsUAp8lHx-142" value="" style="endArrow=none;html=1;rounded=0;entryX=0.5;entryY=0;entryDx=0;entryDy=0;exitX=0.5;exitY=1;exitDx=0;exitDy=0;" parent="1" source="eyb6PB5nKrarsUAp8lHx-141" target="eyb6PB5nKrarsUAp8lHx-141" edge="1">
          <mxGeometry width="50" height="50" relative="1" as="geometry">
            <mxPoint x="265" y="520" as="sourcePoint" />
            <mxPoint x="315" y="470" as="targetPoint" />
          </mxGeometry>
        </mxCell>
        <mxCell id="eyb6PB5nKrarsUAp8lHx-143" value="" style="edgeStyle=orthogonalEdgeStyle;rounded=0;orthogonalLoop=1;jettySize=auto;html=1;" parent="1" source="eyb6PB5nKrarsUAp8lHx-144" target="eyb6PB5nKrarsUAp8lHx-148" edge="1">
          <mxGeometry relative="1" as="geometry" />
        </mxCell>
        <mxCell id="eyb6PB5nKrarsUAp8lHx-144" value="9" style="text;html=1;strokeColor=none;fillColor=none;align=center;verticalAlign=middle;whiteSpace=wrap;rounded=0;" parent="1" vertex="1">
          <mxGeometry x="272.5" y="325" width="60" height="30" as="geometry" />
        </mxCell>
        <mxCell id="eyb6PB5nKrarsUAp8lHx-145" value="3" style="text;html=1;strokeColor=none;fillColor=none;align=center;verticalAlign=middle;whiteSpace=wrap;rounded=0;" parent="1" vertex="1">
          <mxGeometry x="310" y="325" width="60" height="30" as="geometry" />
        </mxCell>
        <mxCell id="eyb6PB5nKrarsUAp8lHx-146" value="" style="rounded=0;whiteSpace=wrap;html=1;" parent="1" vertex="1">
          <mxGeometry x="355" y="320" width="30" height="40" as="geometry" />
        </mxCell>
        <mxCell id="eyb6PB5nKrarsUAp8lHx-147" value="null" style="text;html=1;strokeColor=none;fillColor=none;align=center;verticalAlign=middle;whiteSpace=wrap;rounded=0;" parent="1" vertex="1">
          <mxGeometry x="340" y="325" width="60" height="30" as="geometry" />
        </mxCell>
        <mxCell id="eyb6PB5nKrarsUAp8lHx-148" value="rear" style="text;html=1;strokeColor=none;fillColor=none;align=center;verticalAlign=middle;whiteSpace=wrap;rounded=0;" parent="1" vertex="1">
          <mxGeometry x="272.5" y="395" width="60" height="30" as="geometry" />
        </mxCell>
        <mxCell id="eyb6PB5nKrarsUAp8lHx-149" value="&amp;nbsp;operation will get the first node which is the front that has highest priority which is 5&amp;nbsp; &amp;nbsp;" style="text;html=1;strokeColor=none;fillColor=none;align=center;verticalAlign=middle;whiteSpace=wrap;rounded=0;" parent="1" vertex="1">
          <mxGeometry x="102.5" y="460" width="240" height="50" as="geometry" />
        </mxCell>
        <mxCell id="eyb6PB5nKrarsUAp8lHx-151" value="" style="rounded=1;whiteSpace=wrap;html=1;strokeWidth=2;fillWeight=4;hachureGap=8;hachureAngle=45;fillColor=#1ba1e2;sketch=1;" parent="1" vertex="1">
          <mxGeometry x="47.5" y="310" width="182.5" height="60" as="geometry" />
        </mxCell>
        <mxCell id="eyb6PB5nKrarsUAp8lHx-170" value="" style="rounded=0;whiteSpace=wrap;html=1;align=center;" parent="1" vertex="1">
          <mxGeometry x="-420" y="310" width="65" height="40" as="geometry" />
        </mxCell>
        <mxCell id="eyb6PB5nKrarsUAp8lHx-171" value="" style="endArrow=none;html=1;rounded=0;entryX=0.5;entryY=0;entryDx=0;entryDy=0;exitX=0.5;exitY=1;exitDx=0;exitDy=0;" parent="1" source="eyb6PB5nKrarsUAp8lHx-170" target="eyb6PB5nKrarsUAp8lHx-170" edge="1">
          <mxGeometry width="50" height="50" relative="1" as="geometry">
            <mxPoint x="-430" y="510" as="sourcePoint" />
            <mxPoint x="-380" y="460" as="targetPoint" />
          </mxGeometry>
        </mxCell>
        <mxCell id="eyb6PB5nKrarsUAp8lHx-172" style="edgeStyle=orthogonalEdgeStyle;rounded=0;orthogonalLoop=1;jettySize=auto;html=1;" parent="1" source="eyb6PB5nKrarsUAp8lHx-173" target="eyb6PB5nKrarsUAp8lHx-175" edge="1">
          <mxGeometry relative="1" as="geometry" />
        </mxCell>
        <mxCell id="eyb6PB5nKrarsUAp8lHx-173" value="5" style="text;html=1;strokeColor=none;fillColor=none;align=center;verticalAlign=middle;whiteSpace=wrap;rounded=0;" parent="1" vertex="1">
          <mxGeometry x="-430" y="315" width="60" height="30" as="geometry" />
        </mxCell>
        <mxCell id="eyb6PB5nKrarsUAp8lHx-174" value="2" style="text;html=1;strokeColor=none;fillColor=none;align=center;verticalAlign=middle;whiteSpace=wrap;rounded=0;" parent="1" vertex="1">
          <mxGeometry x="-400" y="315" width="60" height="30" as="geometry" />
        </mxCell>
        <mxCell id="eyb6PB5nKrarsUAp8lHx-175" value="front" style="text;html=1;strokeColor=none;fillColor=none;align=center;verticalAlign=middle;whiteSpace=wrap;rounded=0;" parent="1" vertex="1">
          <mxGeometry x="-430" y="385" width="60" height="30" as="geometry" />
        </mxCell>
        <mxCell id="eyb6PB5nKrarsUAp8lHx-176" value="" style="edgeStyle=orthogonalEdgeStyle;rounded=0;orthogonalLoop=1;jettySize=auto;html=1;" parent="1" source="eyb6PB5nKrarsUAp8lHx-177" target="eyb6PB5nKrarsUAp8lHx-182" edge="1">
          <mxGeometry relative="1" as="geometry" />
        </mxCell>
        <mxCell id="eyb6PB5nKrarsUAp8lHx-177" value="" style="rounded=0;whiteSpace=wrap;html=1;" parent="1" vertex="1">
          <mxGeometry x="-360" y="310" width="110" height="40" as="geometry" />
        </mxCell>
        <mxCell id="eyb6PB5nKrarsUAp8lHx-178" value="0x7f8e1a2310a0" style="text;html=1;strokeColor=none;fillColor=none;align=center;verticalAlign=middle;whiteSpace=wrap;rounded=0;" parent="1" vertex="1">
          <mxGeometry x="-310" y="315" width="5" height="30" as="geometry" />
        </mxCell>
        <mxCell id="eyb6PB5nKrarsUAp8lHx-179" value="" style="rounded=0;whiteSpace=wrap;html=1;align=center;" parent="1" vertex="1">
          <mxGeometry x="-182.5" y="310" width="65" height="40" as="geometry" />
        </mxCell>
        <mxCell id="eyb6PB5nKrarsUAp8lHx-180" value="" style="endArrow=none;html=1;rounded=0;entryX=0.5;entryY=0;entryDx=0;entryDy=0;exitX=0.5;exitY=1;exitDx=0;exitDy=0;" parent="1" source="eyb6PB5nKrarsUAp8lHx-179" target="eyb6PB5nKrarsUAp8lHx-179" edge="1">
          <mxGeometry width="50" height="50" relative="1" as="geometry">
            <mxPoint x="-207.5" y="510" as="sourcePoint" />
            <mxPoint x="-157.5" y="460" as="targetPoint" />
          </mxGeometry>
        </mxCell>
        <mxCell id="eyb6PB5nKrarsUAp8lHx-181" value="" style="edgeStyle=orthogonalEdgeStyle;rounded=0;orthogonalLoop=1;jettySize=auto;html=1;" parent="1" source="eyb6PB5nKrarsUAp8lHx-182" target="eyb6PB5nKrarsUAp8lHx-186" edge="1">
          <mxGeometry relative="1" as="geometry" />
        </mxCell>
        <mxCell id="eyb6PB5nKrarsUAp8lHx-182" value="9" style="text;html=1;strokeColor=none;fillColor=none;align=center;verticalAlign=middle;whiteSpace=wrap;rounded=0;" parent="1" vertex="1">
          <mxGeometry x="-200" y="315" width="60" height="30" as="geometry" />
        </mxCell>
        <mxCell id="eyb6PB5nKrarsUAp8lHx-183" value="3" style="text;html=1;strokeColor=none;fillColor=none;align=center;verticalAlign=middle;whiteSpace=wrap;rounded=0;" parent="1" vertex="1">
          <mxGeometry x="-162.5" y="315" width="60" height="30" as="geometry" />
        </mxCell>
        <mxCell id="eyb6PB5nKrarsUAp8lHx-184" value="" style="rounded=0;whiteSpace=wrap;html=1;" parent="1" vertex="1">
          <mxGeometry x="-117.5" y="310" width="30" height="40" as="geometry" />
        </mxCell>
        <mxCell id="eyb6PB5nKrarsUAp8lHx-185" value="null" style="text;html=1;strokeColor=none;fillColor=none;align=center;verticalAlign=middle;whiteSpace=wrap;rounded=0;" parent="1" vertex="1">
          <mxGeometry x="-132.5" y="315" width="60" height="30" as="geometry" />
        </mxCell>
        <mxCell id="eyb6PB5nKrarsUAp8lHx-186" value="rear" style="text;html=1;strokeColor=none;fillColor=none;align=center;verticalAlign=middle;whiteSpace=wrap;rounded=0;" parent="1" vertex="1">
          <mxGeometry x="-200" y="385" width="60" height="30" as="geometry" />
        </mxCell>
        <mxCell id="eyb6PB5nKrarsUAp8lHx-187" value="&amp;nbsp;operation will remove the first node which is the node that&amp;nbsp; has highest priority which is 5&amp;nbsp; &amp;nbsp;" style="text;html=1;strokeColor=none;fillColor=none;align=center;verticalAlign=middle;whiteSpace=wrap;rounded=0;" parent="1" vertex="1">
          <mxGeometry x="-380" y="450" width="240" height="50" as="geometry" />
        </mxCell>
        <mxCell id="eyb6PB5nKrarsUAp8lHx-200" value="" style="rounded=0;whiteSpace=wrap;html=1;align=center;" parent="1" vertex="1">
          <mxGeometry x="-272.5" y="605" width="65" height="40" as="geometry" />
        </mxCell>
        <mxCell id="eyb6PB5nKrarsUAp8lHx-201" value="" style="endArrow=none;html=1;rounded=0;entryX=0.5;entryY=0;entryDx=0;entryDy=0;exitX=0.5;exitY=1;exitDx=0;exitDy=0;" parent="1" source="eyb6PB5nKrarsUAp8lHx-200" target="eyb6PB5nKrarsUAp8lHx-200" edge="1">
          <mxGeometry width="50" height="50" relative="1" as="geometry">
            <mxPoint x="-297.5" y="805" as="sourcePoint" />
            <mxPoint x="-247.5" y="755" as="targetPoint" />
          </mxGeometry>
        </mxCell>
        <mxCell id="eyb6PB5nKrarsUAp8lHx-202" style="edgeStyle=orthogonalEdgeStyle;rounded=0;orthogonalLoop=1;jettySize=auto;html=1;" parent="1" source="eyb6PB5nKrarsUAp8lHx-204" edge="1">
          <mxGeometry relative="1" as="geometry">
            <mxPoint x="-355" y="600" as="targetPoint" />
          </mxGeometry>
        </mxCell>
        <mxCell id="eyb6PB5nKrarsUAp8lHx-203" style="edgeStyle=orthogonalEdgeStyle;rounded=0;orthogonalLoop=1;jettySize=auto;html=1;" parent="1" source="eyb6PB5nKrarsUAp8lHx-204" edge="1">
          <mxGeometry relative="1" as="geometry">
            <mxPoint x="-330" y="645" as="targetPoint" />
          </mxGeometry>
        </mxCell>
        <mxCell id="eyb6PB5nKrarsUAp8lHx-204" value="9" style="text;html=1;strokeColor=none;fillColor=none;align=center;verticalAlign=middle;whiteSpace=wrap;rounded=0;" parent="1" vertex="1">
          <mxGeometry x="-287.5" y="610" width="60" height="30" as="geometry" />
        </mxCell>
        <mxCell id="eyb6PB5nKrarsUAp8lHx-205" value="3" style="text;html=1;strokeColor=none;fillColor=none;align=center;verticalAlign=middle;whiteSpace=wrap;rounded=0;" parent="1" vertex="1">
          <mxGeometry x="-252.5" y="610" width="60" height="30" as="geometry" />
        </mxCell>
        <mxCell id="eyb6PB5nKrarsUAp8lHx-206" value="front" style="text;html=1;strokeColor=none;fillColor=none;align=center;verticalAlign=middle;whiteSpace=wrap;rounded=0;" parent="1" vertex="1">
          <mxGeometry x="-390" y="550" width="60" height="30" as="geometry" />
        </mxCell>
        <mxCell id="eyb6PB5nKrarsUAp8lHx-207" value="null" style="rounded=0;whiteSpace=wrap;html=1;" parent="1" vertex="1">
          <mxGeometry x="-207.5" y="605" width="30" height="40" as="geometry" />
        </mxCell>
        <mxCell id="eyb6PB5nKrarsUAp8lHx-217" value="rear" style="text;html=1;strokeColor=none;fillColor=none;align=center;verticalAlign=middle;whiteSpace=wrap;rounded=0;" parent="1" vertex="1">
          <mxGeometry x="-360" y="660" width="60" height="30" as="geometry" />
        </mxCell>
        <mxCell id="eyb6PB5nKrarsUAp8lHx-218" value="&lt;font style=&quot;font-size: 15px;&quot;&gt;front =rear=0&lt;/font&gt;" style="text;html=1;strokeColor=none;fillColor=none;align=center;verticalAlign=middle;whiteSpace=wrap;rounded=0;" parent="1" vertex="1">
          <mxGeometry x="-330" y="740" width="115" height="30" as="geometry" />
        </mxCell>
        <mxCell id="rtKhrzHPJh8okAV3fLK8-18" value="" style="ellipse;whiteSpace=wrap;html=1;strokeWidth=2;fillWeight=2;hachureGap=8;fillColor=#990000;fillStyle=dots;sketch=1;" parent="1" vertex="1">
          <mxGeometry x="-430" y="300" width="200" height="60" as="geometry" />
        </mxCell>
      </root>
    </mxGraphModel>
  </diagram>
</mxfile>
